<svg width="101.000000" height="18.000000" viewBox="0 0 101 18" fill="none" xmlns="http://www.w3.org/2000/svg" xmlns:xlink="http://www.w3.org/1999/xlink">
	<desc>
			Created with Pixso.
	</desc>
	<defs>
		<clipPath id="clip135_3354">
			<rect id="logo 2" width="101.000000" height="18.000000" fill="white" fill-opacity="0"/>
		</clipPath>
	</defs>
	<rect id="logo 2" width="101.000000" height="18.000000" fill="#FFFFFF" fill-opacity="0"/>
	<g clip-path="url(#clip135_3354)">
		<path id="Vector" d="M1.26449 16.5385C0.369553 15.2762 -0.074707 13.7627 7.62939e-06 12.2308L7.62939e-06 5.84615C-0.108368 4.29774 0.308067 2.75746 1.18546 1.46154C2.05479 0.461538 3.39829 0 5.37403 0C7.34978 0 8.61425 0.461538 9.40455 1.30769C10.2626 2.37941 10.6846 3.72136 10.59 5.07692L10.59 6.61539L6.71754 6.61539L6.71754 4.84615C6.74881 4.32289 6.66808 3.799 6.48045 3.30769C6.38016 3.10938 6.22121 2.9448 6.02403 2.83513C5.82686 2.72547 5.60049 2.67572 5.37403 2.69231C4.82082 2.69231 4.42567 2.84615 4.26762 3.23077C4.08884 3.77732 4.00862 4.34988 4.03053 4.92308L4.03053 13.1538C3.98879 13.71 4.09779 14.267 4.34665 14.7692C4.50471 15.1538 4.89986 15.3077 5.45306 15.3077C6.00627 15.3077 6.32239 15.1538 6.48045 14.7692C6.66013 14.2494 6.74049 13.7019 6.71754 13.1538L6.71754 11.3077L10.59 11.3077L10.59 12.8462C10.6704 14.2238 10.2508 15.5852 9.40455 16.6923C8.61425 17.6154 7.27074 18.0769 5.37403 18.0769C3.47732 18 2.05479 17.5385 1.26449 16.5385Z" fill="#111111" fill-opacity="1.000000" fill-rule="nonzero"/>
		<path id="Vector" d="M15.2527 0.230774L19.7574 0.230774L23.0767 17.7692L19.4413 17.7692L18.8091 14.0769L16.2011 14.0769L15.5689 17.7692L11.8545 17.7692L15.2527 0.230774ZM18.493 11.7692L17.5446 4.92308L16.5963 11.7692L18.493 11.7692Z" fill="#111111" fill-opacity="1.000000" fill-rule="nonzero"/>
		<path id="Vector" d="M25.8427 3.15385L23.1557 3.15385L23.1557 0.230774L32.5602 0.230774L32.5602 3.07693L29.8732 3.07693L29.8732 17.7692L25.8427 17.7692L25.8427 3.15385Z" fill="#111111" fill-opacity="1.000000" fill-rule="nonzero"/>
		<path id="Vector" d="M39.752 0.230774L46.7066 0.230774L46.7066 2.07693L42.2019 2.07693L42.2019 7.84616L45.8372 7.84616L45.8372 9.61539L42.2019 9.61539L42.2019 16.0769L46.7066 16.0769L46.7066 17.8462L39.6729 17.8462L39.6729 0.230774L39.752 0.230774Z" fill="#111111" fill-opacity="1.000000" fill-rule="nonzero"/>
		<path id="Vector" d="M48.7613 0.230774L50.5 0.230774L55.6369 11.8462L55.6369 0.230774L57.6917 0.230774L57.6917 17.7692L56.1111 17.7692L50.8951 5.76924L50.8951 17.7692L48.7613 17.7692L48.7613 0.230774Z" fill="#111111" fill-opacity="1.000000" fill-rule="nonzero"/>
		<path id="Vector" d="M60.0626 0.230774L67.0172 0.230774L67.0172 2.07693L62.5125 2.07693L62.5125 7.84616L66.1479 7.84616L66.1479 9.61539L62.5125 9.61539L62.5125 16.0769L67.0172 16.0769L67.0172 17.8462L60.0626 17.8462L60.0626 0.230774Z" fill="#111111" fill-opacity="1.000000" fill-rule="nonzero"/>
		<path id="Vector" d="M69.072 0.230776L72.7074 0.230776C74.1375 0.134624 75.5587 0.514359 76.7379 1.3077C77.6072 2.00001 78.0024 3.23078 78.0024 4.84616C78.0024 7.07693 77.2911 8.46154 75.7895 8.92308L78.3185 17.6923L75.8686 17.6923L73.4977 9.46154L71.5219 9.46154L71.5219 17.6923L68.993 17.6923L68.993 0.230776L69.072 0.230776ZM72.5493 7.76924C73.364 7.83458 74.1761 7.61653 74.8412 7.15385C75.3154 6.76924 75.5524 6.00001 75.5524 4.84616C75.5744 4.27297 75.4941 3.70041 75.3154 3.15385C75.1375 2.76166 74.832 2.43731 74.446 2.23078C73.9017 1.98935 73.3042 1.88361 72.7074 1.92308L71.601 1.92308L71.601 7.69231L72.5493 7.69231L72.5493 7.76924Z" fill="#111111" fill-opacity="1.000000" fill-rule="nonzero"/>
		<path id="Vector" d="M81.1635 16.4615C80.342 15.1166 79.9564 13.5617 80.0571 12L80.0571 6.15385C80.0376 5.03911 80.1705 3.9268 80.4522 2.84616C80.7167 2.03863 81.2437 1.33668 81.9538 0.846155C82.8362 0.337751 83.8542 0.0967331 84.8779 0.153849C86.5375 0.153849 87.723 0.538464 88.4342 1.38462C89.2524 2.50191 89.6438 3.86238 89.5407 5.23077L89.5407 5.84616L87.1698 5.84616L87.1698 5.3077C87.1734 4.66346 87.1205 4.0201 87.0117 3.38462C86.9451 2.98304 86.7178 2.62349 86.3795 2.38462C85.9353 2.10082 85.4081 1.96579 84.8779 2C84.3113 1.96466 83.7504 2.12843 83.2973 2.46154C83.1114 2.61401 82.9595 2.80182 82.8508 3.01345C82.7421 3.22508 82.6789 3.45608 82.6651 3.69231C82.5609 4.37999 82.5081 5.07412 82.507 5.76923L82.507 12.3077C82.4488 13.3038 82.6105 14.3006 82.9812 15.2308C83.2973 15.8462 83.9296 16.0769 84.8779 16.0769C85.2523 16.1223 85.6322 16.0589 85.9697 15.8947C86.3073 15.7304 86.5873 15.4727 86.7746 15.1539C87.1922 14.1811 87.3812 13.1299 87.3278 12.0769L87.3278 10.8462L85.036 10.8462L85.036 9.07693L89.6197 9.07693L89.6197 17.7692L88.0391 17.7692L87.802 15.7692C87.5948 16.4395 87.1634 17.0231 86.5763 17.4273C85.9892 17.8315 85.2801 18.0331 84.5618 18C83.9088 18.0374 83.2565 17.9164 82.6633 17.6479C82.0702 17.3794 81.5549 16.9717 81.1635 16.4615Z" fill="#111111" fill-opacity="1.000000" fill-rule="nonzero"/>
		<path id="Vector" d="M94.6776 11.6154L90.8052 0.307693L93.1761 0.307693L95.9421 8.76923L98.6291 0.307693L101 0.307693L97.1275 11.6154L97.1275 17.7692L94.7567 17.7692L94.7567 11.6154L94.6776 11.6154Z" fill="#111111" fill-opacity="1.000000" fill-rule="nonzero"/>
	</g>
</svg>
